<mxfile host="app.diagrams.net" modified="2024-06-11T07:18:27.053Z" agent="Mozilla/5.0 (Macintosh; Intel Mac OS X 10_15_7) AppleWebKit/537.36 (KHTML, like Gecko) Chrome/125.0.0.0 Safari/537.36" etag="VPSSEbYKkyeF1wsovp7B" version="24.5.2" type="device">
  <diagram name="Page-1" id="RnTrilUjqwDhubStlauM">
    <mxGraphModel dx="1984" dy="670" grid="1" gridSize="10" guides="1" tooltips="1" connect="1" arrows="1" fold="1" page="1" pageScale="1" pageWidth="850" pageHeight="1100" math="0" shadow="0">
      <root>
        <mxCell id="0" />
        <mxCell id="1" parent="0" />
        <mxCell id="hIHVYD_k8BKYlFtgLhZW-4" style="rounded=0;orthogonalLoop=1;jettySize=auto;html=1;exitX=1;exitY=0.3333333333333333;exitDx=0;exitDy=0;exitPerimeter=0;entryX=0.5;entryY=1;entryDx=0;entryDy=0;" edge="1" parent="1" source="hIHVYD_k8BKYlFtgLhZW-1" target="hIHVYD_k8BKYlFtgLhZW-3">
          <mxGeometry relative="1" as="geometry" />
        </mxCell>
        <mxCell id="hIHVYD_k8BKYlFtgLhZW-10" style="rounded=0;orthogonalLoop=1;jettySize=auto;html=1;exitX=1;exitY=0.3333333333333333;exitDx=0;exitDy=0;exitPerimeter=0;" edge="1" parent="1" source="hIHVYD_k8BKYlFtgLhZW-1" target="hIHVYD_k8BKYlFtgLhZW-3">
          <mxGeometry relative="1" as="geometry">
            <Array as="points">
              <mxPoint x="250" y="240" />
            </Array>
          </mxGeometry>
        </mxCell>
        <mxCell id="hIHVYD_k8BKYlFtgLhZW-1" value="Umar" style="shape=umlActor;verticalLabelPosition=bottom;verticalAlign=top;html=1;outlineConnect=0;" vertex="1" parent="1">
          <mxGeometry x="80" y="195" width="30" height="60" as="geometry" />
        </mxCell>
        <mxCell id="hIHVYD_k8BKYlFtgLhZW-8" style="edgeStyle=orthogonalEdgeStyle;rounded=0;orthogonalLoop=1;jettySize=auto;html=1;exitX=0.5;exitY=1;exitDx=0;exitDy=0;" edge="1" parent="1" source="hIHVYD_k8BKYlFtgLhZW-3" target="hIHVYD_k8BKYlFtgLhZW-6">
          <mxGeometry relative="1" as="geometry" />
        </mxCell>
        <mxCell id="hIHVYD_k8BKYlFtgLhZW-3" value="SIMAT" style="rounded=1;whiteSpace=wrap;html=1;" vertex="1" parent="1">
          <mxGeometry x="260" y="40" width="120" height="60" as="geometry" />
        </mxCell>
        <mxCell id="hIHVYD_k8BKYlFtgLhZW-5" value="Username, Password" style="text;html=1;align=center;verticalAlign=middle;whiteSpace=wrap;rounded=0;" vertex="1" parent="1">
          <mxGeometry x="130" y="100" width="60" height="30" as="geometry" />
        </mxCell>
        <mxCell id="hIHVYD_k8BKYlFtgLhZW-6" value="401" style="text;html=1;align=center;verticalAlign=middle;whiteSpace=wrap;rounded=0;" vertex="1" parent="1">
          <mxGeometry x="350" y="260" width="60" height="30" as="geometry" />
        </mxCell>
        <mxCell id="hIHVYD_k8BKYlFtgLhZW-7" value="412" style="text;html=1;align=center;verticalAlign=middle;whiteSpace=wrap;rounded=0;" vertex="1" parent="1">
          <mxGeometry x="260" y="195" width="60" height="30" as="geometry" />
        </mxCell>
        <mxCell id="hIHVYD_k8BKYlFtgLhZW-9" value="Email" style="text;html=1;align=center;verticalAlign=middle;whiteSpace=wrap;rounded=0;" vertex="1" parent="1">
          <mxGeometry x="170" y="195" width="60" height="30" as="geometry" />
        </mxCell>
        <mxCell id="hIHVYD_k8BKYlFtgLhZW-11" value="404" style="text;html=1;align=center;verticalAlign=middle;whiteSpace=wrap;rounded=0;" vertex="1" parent="1">
          <mxGeometry x="140" y="230" width="60" height="30" as="geometry" />
        </mxCell>
        <mxCell id="hIHVYD_k8BKYlFtgLhZW-12" value="Kode Verifiikasi" style="text;html=1;align=center;verticalAlign=middle;whiteSpace=wrap;rounded=0;" vertex="1" parent="1">
          <mxGeometry x="690" y="20" width="110" height="30" as="geometry" />
        </mxCell>
        <mxCell id="hIHVYD_k8BKYlFtgLhZW-13" value="Link Reset Password" style="text;html=1;align=center;verticalAlign=middle;whiteSpace=wrap;rounded=0;" vertex="1" parent="1">
          <mxGeometry x="440" y="60" width="150" height="30" as="geometry" />
        </mxCell>
        <mxCell id="hIHVYD_k8BKYlFtgLhZW-16" style="edgeStyle=orthogonalEdgeStyle;rounded=0;orthogonalLoop=1;jettySize=auto;html=1;exitX=0.5;exitY=1;exitDx=0;exitDy=0;" edge="1" parent="1" source="hIHVYD_k8BKYlFtgLhZW-14" target="hIHVYD_k8BKYlFtgLhZW-15">
          <mxGeometry relative="1" as="geometry" />
        </mxCell>
        <mxCell id="hIHVYD_k8BKYlFtgLhZW-14" value="Mulai" style="ellipse;whiteSpace=wrap;html=1;" vertex="1" parent="1">
          <mxGeometry x="510" y="150" width="120" height="80" as="geometry" />
        </mxCell>
        <mxCell id="hIHVYD_k8BKYlFtgLhZW-19" value="" style="edgeStyle=orthogonalEdgeStyle;rounded=0;orthogonalLoop=1;jettySize=auto;html=1;" edge="1" parent="1" source="hIHVYD_k8BKYlFtgLhZW-15" target="hIHVYD_k8BKYlFtgLhZW-18">
          <mxGeometry relative="1" as="geometry" />
        </mxCell>
        <mxCell id="hIHVYD_k8BKYlFtgLhZW-15" value="Input Email" style="shape=parallelogram;perimeter=parallelogramPerimeter;whiteSpace=wrap;html=1;fixedSize=1;" vertex="1" parent="1">
          <mxGeometry x="360" y="330" width="120" height="60" as="geometry" />
        </mxCell>
        <mxCell id="hIHVYD_k8BKYlFtgLhZW-21" style="edgeStyle=orthogonalEdgeStyle;rounded=0;orthogonalLoop=1;jettySize=auto;html=1;exitX=1;exitY=0.5;exitDx=0;exitDy=0;" edge="1" parent="1" source="hIHVYD_k8BKYlFtgLhZW-18" target="hIHVYD_k8BKYlFtgLhZW-20">
          <mxGeometry relative="1" as="geometry" />
        </mxCell>
        <mxCell id="hIHVYD_k8BKYlFtgLhZW-18" value="Cek Ketersediaan Email" style="rounded=0;whiteSpace=wrap;html=1;" vertex="1" parent="1">
          <mxGeometry x="360" y="460" width="120" height="60" as="geometry" />
        </mxCell>
        <mxCell id="hIHVYD_k8BKYlFtgLhZW-23" style="edgeStyle=orthogonalEdgeStyle;rounded=0;orthogonalLoop=1;jettySize=auto;html=1;exitX=0.5;exitY=1;exitDx=0;exitDy=0;entryX=0.5;entryY=0;entryDx=0;entryDy=0;" edge="1" parent="1" source="hIHVYD_k8BKYlFtgLhZW-20" target="hIHVYD_k8BKYlFtgLhZW-22">
          <mxGeometry relative="1" as="geometry" />
        </mxCell>
        <mxCell id="hIHVYD_k8BKYlFtgLhZW-20" value="Generate Token" style="rounded=0;whiteSpace=wrap;html=1;" vertex="1" parent="1">
          <mxGeometry x="550" y="460" width="120" height="60" as="geometry" />
        </mxCell>
        <mxCell id="hIHVYD_k8BKYlFtgLhZW-25" style="edgeStyle=orthogonalEdgeStyle;rounded=0;orthogonalLoop=1;jettySize=auto;html=1;exitX=0.5;exitY=1;exitDx=0;exitDy=0;" edge="1" parent="1" source="hIHVYD_k8BKYlFtgLhZW-22" target="hIHVYD_k8BKYlFtgLhZW-24">
          <mxGeometry relative="1" as="geometry" />
        </mxCell>
        <mxCell id="hIHVYD_k8BKYlFtgLhZW-22" value="Token Dikirimkan melalui EMAIL Sistem" style="rounded=0;whiteSpace=wrap;html=1;" vertex="1" parent="1">
          <mxGeometry x="550" y="560" width="120" height="60" as="geometry" />
        </mxCell>
        <mxCell id="hIHVYD_k8BKYlFtgLhZW-27" style="edgeStyle=orthogonalEdgeStyle;rounded=0;orthogonalLoop=1;jettySize=auto;html=1;exitX=0;exitY=0.5;exitDx=0;exitDy=0;entryX=1;entryY=0.5;entryDx=0;entryDy=0;" edge="1" parent="1" source="hIHVYD_k8BKYlFtgLhZW-24" target="hIHVYD_k8BKYlFtgLhZW-26">
          <mxGeometry relative="1" as="geometry" />
        </mxCell>
        <mxCell id="hIHVYD_k8BKYlFtgLhZW-24" value="Pengguna Click Link" style="rounded=0;whiteSpace=wrap;html=1;" vertex="1" parent="1">
          <mxGeometry x="550" y="670" width="120" height="60" as="geometry" />
        </mxCell>
        <mxCell id="hIHVYD_k8BKYlFtgLhZW-29" style="edgeStyle=orthogonalEdgeStyle;rounded=0;orthogonalLoop=1;jettySize=auto;html=1;exitX=0;exitY=0.5;exitDx=0;exitDy=0;" edge="1" parent="1" source="hIHVYD_k8BKYlFtgLhZW-26" target="hIHVYD_k8BKYlFtgLhZW-28">
          <mxGeometry relative="1" as="geometry" />
        </mxCell>
        <mxCell id="hIHVYD_k8BKYlFtgLhZW-26" value="Redirect to Reset Password" style="rounded=0;whiteSpace=wrap;html=1;" vertex="1" parent="1">
          <mxGeometry x="365" y="670" width="120" height="60" as="geometry" />
        </mxCell>
        <mxCell id="hIHVYD_k8BKYlFtgLhZW-31" style="edgeStyle=orthogonalEdgeStyle;rounded=0;orthogonalLoop=1;jettySize=auto;html=1;exitX=0.5;exitY=0;exitDx=0;exitDy=0;entryX=0.5;entryY=1;entryDx=0;entryDy=0;" edge="1" parent="1" source="hIHVYD_k8BKYlFtgLhZW-28" target="hIHVYD_k8BKYlFtgLhZW-30">
          <mxGeometry relative="1" as="geometry" />
        </mxCell>
        <mxCell id="hIHVYD_k8BKYlFtgLhZW-28" value="Input New Password" style="rounded=0;whiteSpace=wrap;html=1;" vertex="1" parent="1">
          <mxGeometry x="130" y="670" width="120" height="60" as="geometry" />
        </mxCell>
        <mxCell id="hIHVYD_k8BKYlFtgLhZW-33" style="edgeStyle=orthogonalEdgeStyle;rounded=0;orthogonalLoop=1;jettySize=auto;html=1;exitX=0.5;exitY=0;exitDx=0;exitDy=0;entryX=0.5;entryY=1;entryDx=0;entryDy=0;" edge="1" parent="1" source="hIHVYD_k8BKYlFtgLhZW-30" target="hIHVYD_k8BKYlFtgLhZW-32">
          <mxGeometry relative="1" as="geometry" />
        </mxCell>
        <mxCell id="hIHVYD_k8BKYlFtgLhZW-30" value="Cek Kadaluarsa Token" style="rounded=0;whiteSpace=wrap;html=1;" vertex="1" parent="1">
          <mxGeometry x="130" y="560" width="120" height="60" as="geometry" />
        </mxCell>
        <mxCell id="hIHVYD_k8BKYlFtgLhZW-35" style="edgeStyle=orthogonalEdgeStyle;rounded=0;orthogonalLoop=1;jettySize=auto;html=1;exitX=0.5;exitY=0;exitDx=0;exitDy=0;entryX=0.5;entryY=1;entryDx=0;entryDy=0;" edge="1" parent="1" source="hIHVYD_k8BKYlFtgLhZW-32" target="hIHVYD_k8BKYlFtgLhZW-34">
          <mxGeometry relative="1" as="geometry" />
        </mxCell>
        <mxCell id="hIHVYD_k8BKYlFtgLhZW-32" value="Verifikasi by Sistem" style="rounded=0;whiteSpace=wrap;html=1;" vertex="1" parent="1">
          <mxGeometry x="130" y="450" width="120" height="60" as="geometry" />
        </mxCell>
        <mxCell id="hIHVYD_k8BKYlFtgLhZW-38" style="edgeStyle=orthogonalEdgeStyle;rounded=0;orthogonalLoop=1;jettySize=auto;html=1;exitX=0;exitY=0.5;exitDx=0;exitDy=0;entryX=1;entryY=0.5;entryDx=0;entryDy=0;" edge="1" parent="1" source="hIHVYD_k8BKYlFtgLhZW-34" target="hIHVYD_k8BKYlFtgLhZW-39">
          <mxGeometry relative="1" as="geometry">
            <mxPoint y="380" as="targetPoint" />
          </mxGeometry>
        </mxCell>
        <mxCell id="hIHVYD_k8BKYlFtgLhZW-34" value="Password dirubah" style="rounded=0;whiteSpace=wrap;html=1;" vertex="1" parent="1">
          <mxGeometry x="130" y="350" width="120" height="60" as="geometry" />
        </mxCell>
        <mxCell id="hIHVYD_k8BKYlFtgLhZW-41" style="edgeStyle=orthogonalEdgeStyle;rounded=0;orthogonalLoop=1;jettySize=auto;html=1;exitX=0.5;exitY=1;exitDx=0;exitDy=0;" edge="1" parent="1" source="hIHVYD_k8BKYlFtgLhZW-39" target="hIHVYD_k8BKYlFtgLhZW-40">
          <mxGeometry relative="1" as="geometry" />
        </mxCell>
        <mxCell id="hIHVYD_k8BKYlFtgLhZW-39" value="Password Dirubah" style="shape=parallelogram;perimeter=parallelogramPerimeter;whiteSpace=wrap;html=1;fixedSize=1;" vertex="1" parent="1">
          <mxGeometry x="-90" y="350" width="120" height="60" as="geometry" />
        </mxCell>
        <mxCell id="hIHVYD_k8BKYlFtgLhZW-40" value="Selesai" style="ellipse;whiteSpace=wrap;html=1;" vertex="1" parent="1">
          <mxGeometry x="-90" y="520" width="120" height="80" as="geometry" />
        </mxCell>
      </root>
    </mxGraphModel>
  </diagram>
</mxfile>
